<svg width="40" height="48" viewBox="0 0 40 48" fill="none" xmlns="http://www.w3.org/2000/svg">
  <!-- Pin shape -->
  <path d="M20 0C31.0457 0 40 8.9543 40 20C40 31.0457 31.0457 40 20 40C8.9543 40 0 31.0457 0 20C0 8.9543 8.9543 0 20 0Z" fill="#5DADE2"/>
  <path d="M20 40L15 48L25 48Z" fill="#5DADE2"/>
  
  <!-- White circle background -->
  <circle cx="20" cy="20" r="12" fill="white"/>
  
  <!-- Tools -->
  <!-- Wrench -->
  <path d="M14 16L16 14L18 16L16 18Z" fill="#3498DB"/>
  <path d="M16 14L18 12C19.1046 12 20 12.8954 20 14C20 15.1046 19.1046 16 18 16L16 14Z" fill="#3498DB"/>
  
  <!-- Hammer -->
  <path d="M22 16L24 14L26 16L24 18Z" fill="#F39C12"/>
  <rect x="23" y="13" width="2" height="6" rx="1" fill="#F39C12"/>
  <rect x="22" y="12" width="4" height="2" rx="1" fill="#F39C12"/>
  
  <!-- Screwdriver -->
  <path d="M18 20L20 18L22 20L20 22Z" fill="#E67E22"/>
  <rect x="19" y="17" width="2" height="6" rx="0.5" fill="#E67E22"/>
  <circle cx="20" cy="16.5" r="1" fill="#E67E22"/>
  
  <!-- Gear -->
  <circle cx="20" cy="24" r="3" fill="#F39C12"/>
  <circle cx="20" cy="24" r="1.5" fill="white"/>
  <rect x="19.5" y="21" width="1" height="1" fill="#F39C12"/>
  <rect x="19.5" y="26" width="1" height="1" fill="#F39C12"/>
  <rect x="17" y="23.5" width="1" height="1" fill="#F39C12"/>
  <rect x="22" y="23.5" width="1" height="1" fill="#F39C12"/>
</svg>